<?xml version="1.0" encoding="UTF-8" standalone="no"?>
<!-- Created with Inkscape (http://www.inkscape.org/) -->

<svg
   xmlns:dc="http://purl.org/dc/elements/1.1/"
   xmlns:cc="http://creativecommons.org/ns#"
   xmlns:rdf="http://www.w3.org/1999/02/22-rdf-syntax-ns#"
   xmlns:svg="http://www.w3.org/2000/svg"
   xmlns="http://www.w3.org/2000/svg"
   xmlns:sodipodi="http://sodipodi.sourceforge.net/DTD/sodipodi-0.dtd"
   xmlns:inkscape="http://www.inkscape.org/namespaces/inkscape"
   width="30mm"
   height="30mm"
   viewBox="0 0 30 30"
   version="1.1"
   id="svg95853"
   inkscape:version="0.92.2 (5c3e80d, 2017-08-06)"
   sodipodi:docname="gift.svg">
  <defs
     id="defs95847" />
  <sodipodi:namedview
     id="base"
     pagecolor="#000000"
     bordercolor="#666666"
     borderopacity="1.0"
     inkscape:pageopacity="0"
     inkscape:pageshadow="2"
     inkscape:zoom="2.8284271"
     inkscape:cx="-8.9695021"
     inkscape:cy="57.482053"
     inkscape:document-units="mm"
     inkscape:current-layer="layer1"
     showgrid="false"
     inkscape:pagecheckerboard="true"
     fit-margin-top="0"
     fit-margin-left="0"
     fit-margin-right="0"
     fit-margin-bottom="0"
     inkscape:window-width="1920"
     inkscape:window-height="1009"
     inkscape:window-x="1676"
     inkscape:window-y="-4"
     inkscape:window-maximized="1" />
  <metadata
     id="metadata95850">
    <rdf:RDF>
      <cc:Work
         rdf:about="">
        <dc:format>image/svg+xml</dc:format>
        <dc:type
           rdf:resource="http://purl.org/dc/dcmitype/StillImage" />
        <dc:title />
      </cc:Work>
    </rdf:RDF>
  </metadata>
  <g
     inkscape:label="Layer 1"
     inkscape:groupmode="layer"
     id="layer1"
     transform="translate(0,-117)">
    <path
       style="opacity:1;fill:#a1dba6;fill-opacity:0.36470589;stroke:none;stroke-width:1.32291663;stroke-linecap:butt;stroke-linejoin:miter;stroke-miterlimit:4;stroke-dasharray:none;stroke-opacity:1;paint-order:normal"
       d="M 0,134.99993 6,131 h 18 l 6.000236,3.99993 -7.147885,6.29781 H 7.1473673 Z"
       id="path871"
       inkscape:connector-curvature="0"
       sodipodi:nodetypes="ccccccc" />
    <path
       style="opacity:1;fill:#a1dba6;fill-opacity:1;stroke:none;stroke-width:5;stroke-linecap:butt;stroke-linejoin:miter;stroke-miterlimit:4;stroke-dasharray:none;stroke-opacity:1;paint-order:normal"
       d="M 56.693359 0.49023438 L 45.5625 35.664062 L 8.671875 35.380859 L 38.685547 56.833984 L 36 64.886719 L 77.386719 64.886719 L 74.701172 56.833984 L 104.71484 35.380859 L 67.822266 35.664062 L 56.693359 0.49023438 z M 29.580078 84.136719 L 27.013672 91.833984 L 37.4375 84.136719 L 29.580078 84.136719 z M 75.947266 84.136719 L 86.371094 91.833984 L 83.804688 84.136719 L 75.947266 84.136719 z "
       transform="matrix(0.26458333,0,0,0.26458333,0,117)"
       id="path824" />
    <path
       style="opacity:1;fill:#a1dba6;fill-opacity:1;stroke:none;stroke-width:4.87699318;stroke-linecap:butt;stroke-linejoin:miter;stroke-miterlimit:4;stroke-dasharray:none;stroke-opacity:1;paint-order:normal"
       d="M 0 68.03125 L 0 75.589844 L 0 86.929688 L 0 105.82617 C 5.9211894e-016 110.01389 3.3708772 113.38672 7.5585938 113.38672 L 105.82617 113.38672 C 110.01389 113.38672 113.38672 110.01389 113.38672 105.82617 L 113.38672 86.929688 L 113.38672 75.589844 L 113.38672 68.03125 L 105.82617 68.03125 L 75.589844 68.03125 L 75.589844 73.017578 C 75.589844 77.205295 72.218967 80.576172 68.03125 80.576172 L 45.353516 80.576172 C 41.165799 80.576172 37.794922 77.205295 37.794922 73.017578 L 37.794922 68.03125 L 7.5585938 68.03125 L 0 68.03125 z "
       transform="matrix(0.26458333,0,0,0.26458333,0,117)"
       id="rect826" />
  </g>
</svg>
